<?xml version="1.0" encoding="utf-8"?>
<!-- Generator: Adobe Illustrator 25.2.3, SVG Export Plug-In . SVG Version: 6.00 Build 0)  -->
<svg version="1.1" id="레이어_1" xmlns="http://www.w3.org/2000/svg" xmlns:xlink="http://www.w3.org/1999/xlink" x="0px"
	 y="0px" viewBox="0 0 2000 2000" style="enable-background:new 0 0 2000 2000;" xml:space="preserve">
<style type="text/css">
	.st0{fill:#113673;}
	.st1{fill:#FFFFFF;}
</style>
<path class="st0" d="M489.4,1007.5h-61.6v78.7h61.6V1007.5z M218.2,1600.3c89.1,117.6,246.6,91,246.6,91c19-166.9-48.4-221-48.4-221
	c-41.7,89.1,21.8,195.4,21.8,195.4C342.4,1578.4,218.2,1600.3,218.2,1600.3 M381.3,683.2L351,654.7c-73,18-125.2,82.5-125.2,82.5
	c34.1-81.6,15.2-158.4,0-198.2L204,521c-62.6,119.5,6.6,250.4,6.6,250.4C308.3,749.6,357.6,710.7,381.3,683.2 M584.3,1773.8
	c-2.8-52.2-12.3-90.1-24.7-119.5h-59.7c16.1,56.9,53.1,99.6,53.1,99.6c-109.1-70.2-227.6-26.6-227.6-26.6
	C434.4,1827.9,584.3,1773.8,584.3,1773.8 M570,888V1569h337.6c37.9,0.9,77.8,31.3,77.8,31.3v-544.4
	C781.5,1051.2,739.8,889,739.8,889H570V888z M1352.4,536.2l-101.5,110l0.9,175.4c0,0-2.8,29.4-9.5,43.6h64.5l185.9-185.9
	L1352.4,536.2L1352.4,536.2z M491.3,1378.3h-61.6v78.7h61.6V1378.3z M592.8,617.7l129.9,128v-98.6L592.8,517.2V617.7z M489.4,1713.1
	c8.5,0,15.2-6.6,15.2-15.2c0-7.6-6.6-15.2-15.2-15.2c-7.6,0-14.2,6.6-14.2,15.2C475.2,1706.5,481.8,1713.1,489.4,1713.1
	 M254.2,666.1c0,7.6,6.6,14.2,15.2,14.2c8.5,0,14.2-6.6,14.2-14.2c0-8.5-6.6-14.2-14.2-14.2C260.9,651.9,254.2,658.5,254.2,666.1
	 M490.4,1606c0.9,6.6,1.9-1.9,1.9-1.9v-95.8l-16.1,18C485.6,1550.9,488.5,1585.1,490.4,1606 M722.7,795.1v-19.9L626,678.4H401.2
	l127.1,115.7h194.4V795.1z M234.3,522c0,0-8.5-52.2,46.5-130.9H95.8C96.8,391.1,104.4,412.9,234.3,522 M75,809.3
	c-33.2,144.2,89.1,247.5,89.1,247.5c140.4-92.9,138.5-179.2,138.5-179.2C207.8,902.3,166,1019.9,166,1019.9
	C171.7,889.9,75,809.3,75,809.3 M183.1,876.7C211.5,749.6,130,653.8,130,653.8c-57.9,136.6,44.6,258.9,44.6,258.9
	C329.1,845.4,341.5,760,341.5,760C244.7,767.6,183.1,876.7,183.1,876.7 M196.4,937.3c0-7.6-6.6-15.2-14.2-15.2
	c-8.5,0-15.2,6.6-15.2,15.2c0,8.5,6.6,15.2,15.2,15.2C189.7,951.6,196.4,944.9,196.4,937.3 M948.4,1680.9h96.7
	c0,0,6.6-41.7,34.1-41.7h402.1V932.6l-39.8-41.7v700.8h-359.4c0,0-48.4,3.8-86.3,50.3c0,0-29.4-44.6-92-48.4H553V896.6l-42.7,42.7
	v699.9h389.8C900.1,1639.1,948.4,1641,948.4,1680.9 M318.7,382.5c-100.5,108.1-47.4,258.9-47.4,258.9
	c167.9-10.4,209.6-86.3,209.6-86.3c-94.8-25.6-188.7,55-188.7,55C362.3,500.1,318.7,382.5,318.7,382.5 M1720.4,1642
	c24.7-15.2,47.4-36,67.3-64.5c0,0-53.1-6.6-115.7,14.2L1720.4,1642z M1822.8,1000.9c0,0-43.6-116.7-139.4-139.4
	c0,0,0,86.3,142.3,176.4c0,0,119.5-106.2,82.5-249.4C1908.2,788.5,1813.4,871,1822.8,1000.9 M1643.6,1348.9c0,0-56,66.4-3.8,226.7
	c0,0,159.3-4.7,223.8-137.5c0,0-126.1,1.9-202,107.2C1661.6,1545.3,1702.4,1427.7,1643.6,1348.9 M1819,1145
	c0,0-22.8-122.3-112.9-161.2c0,0-15.2,85.4,110,198.2c0,0,135.6-83.5,125.2-231.4C1940.4,950.6,1832.3,1016.1,1819,1145
	 M1706.2,1108.1c0,0-29.4,81.6,74,214.3c0,0,147.9-58.8,163.1-205.8c0,0-117.6,45.5-152.7,170.7
	C1790.6,1287.3,1788.7,1162.1,1706.2,1108.1 M1801,1218.1c8.5,0,14.2-6.6,14.2-15.2c0-7.6-6.6-14.2-14.2-14.2
	c-8.5,0-15.2,6.6-15.2,14.2C1785.8,1211.4,1792.5,1218.1,1801,1218.1 M1714.7,1469.4c0-8.5-6.6-14.2-14.2-14.2
	c-8.5,0-14.2,6.6-14.2,14.2c0,8.5,6.6,15.2,14.2,15.2C1708.1,1483.6,1714.7,1477.9,1714.7,1469.4 M472.4,594L472.4,594
	c-5.7,4.7-46.5,41.7-109.1,49.3l20.9,19.9l222.9-0.9l-69.2-69.2l0,0L502.7,558C503.6,558,479,590.2,472.4,594 M1007.2,1051.2v548.2
	c0,0,31.3-31.3,74-31.3h340.5V887.1h-184C1237.7,888,1185.5,1048.3,1007.2,1051.2 M571.9,499.2c0,0-14.2,20.9-69.2,33.2l69.2,64.5
	V499.2z M749.3,780.9c0,171.7,107.2,250.4,239.9,250.4s239.9-78.7,239.9-250.4V292.5H749.3C749.3,292.5,749.3,609.2,749.3,780.9
	 M865,434.7v-72.1h224.8V466h74v74h-72.1v33.2h72.1v80.6h-72.1v240.9H1030l-85.4-85.4L865.9,888L809,831.1L939,701.2l67.3,67.3
	V435.7H865V434.7z M544.4,813.1l56.9,50.3h129c-6.6-10.4-3.8-49.3-3.8-49.3L544.4,813.1z M1582.9,1458c0,0-10.4,11.4-14.2,27.5
	l31.3,32.2C1599,1497.8,1593.3,1477,1582.9,1458 M362.3,1589.8c47.4-161.2-9.5-226.7-9.5-226.7c-56.9,79.7-12.3,196.3-12.3,196.3
	c-78.7-103.4-204.8-102.4-204.8-102.4C202.1,1588.9,362.3,1589.8,362.3,1589.8 M353.8,522c166.9,19,221-48.4,221-48.4
	c-88.2-41.7-195.4,21.8-195.4,21.8c88.2-95.8,65.4-219.1,65.4-219.1C327.2,364.5,353.8,522,353.8,522 M703.8,1703.6
	c7.6,97.7,116.7,158.4,116.7,158.4c-127.1-28.5-222.9,53.1-222.9,53.1c136.6,57.9,258.9-44.6,258.9-44.6
	C789.1,1716,703.8,1703.6,703.8,1703.6 M277.9,1472.2c74.9-150.8,30.3-224.8,30.3-224.8c-70.2,69.2-46.5,191.6-46.5,191.6
	c-59.7-115.7-184-136.6-184-136.6C121.5,1443.8,277.9,1472.2,277.9,1472.2 M614.6,1654.3h-20.9c-0.9,92,88.2,165,88.2,165
	c-120.4-50.3-228.6,13.3-228.6,13.3c124.2,80.6,262.7,0.9,262.7,0.9C689.5,1721.7,642.1,1673.3,614.6,1654.3 M305.4,1724.5
	c0,0,22.8-13.3,56-19l-37-8.5l-3.8,4.7c1.9-2.8,3.8-4.7,3.8-4.7l-163.1,171.7c0,0-19,26.6-0.9,44.6c0,0,16.1,13.3,38.9-1.9
	l159.3-139.4C342.4,1763.4,307.3,1734.9,305.4,1724.5 M215.3,1341.4c99.6-135.6,68.3-216.2,68.3-216.2
	c-80.6,56-79.7,180.2-79.7,180.2c-38.9-124.2-157.4-166.9-157.4-166.9C66.4,1286.3,215.3,1341.4,215.3,1341.4 M299.7,374
	L106.3,180.5c0,0-80.6,57.9-18,193.5H299.7z M387,302.9L273.2,188.1C203,118,119.6,164.4,119.6,164.4l223.8,222.9
	C358.5,330.4,387,302.9,387,302.9 M177.4,1221.9c0,8.5,6.6,15.2,14.2,15.2c8.5,0,14.2-6.6,14.2-15.2c0-8.5-6.6-15.2-14.2-15.2
	C184,1207.6,177.4,1213.3,177.4,1221.9 M177.4,1201.9c122.3-115.7,105.3-201.1,105.3-201.1c-89.1,40.8-109.1,164.1-109.1,164.1
	C157.5,1036,47.5,973.4,47.5,973.4C38.9,1121.3,177.4,1201.9,177.4,1201.9 M284.6,1486.5c0,8.5,6.6,15.2,15.2,15.2
	c8.5,0,15.2-6.6,15.2-15.2c0-8.5-6.6-14.2-15.2-14.2C291.2,1471.3,284.6,1477.9,284.6,1486.5 M1514.6,1700.8
	c8.5,0,15.2-6.6,15.2-15.2c0-8.5-6.6-14.2-15.2-14.2s-14.2,6.6-14.2,14.2C1499.4,1694.2,1506.1,1700.8,1514.6,1700.8 M1592.4,1681.8
	l-52.2-41.7c0.9,13.3,2.8,26.6,4.7,41.7C1545.9,1681.8,1564.9,1683.7,1592.4,1681.8 M1737.5,1421c0,0,19.9-123.3-51.2-189.7
	c0,0-43.6,74.9,35.1,223.8c0,0,156.5-32.2,196.3-174.5C1917.7,1280.7,1793.4,1304.4,1737.5,1421 M756.9,1831.7
	c0-8.5-6.6-15.2-15.2-15.2c-8.5,0-14.2,6.6-14.2,15.2s6.6,14.2,14.2,14.2C750.2,1846.8,756.9,1840.2,756.9,1831.7 M1452,1743.5
	c0,0,32.2-37.9,47.4-92l-59.7-0.9c-9.5,29.4-17.1,66.4-18,113.8c0,0,129,42.7,232.4-32.2l-39.8-32.2
	C1570.6,1697.9,1509.9,1704.6,1452,1743.5 M1495.6,1504.5v78.7l350.9,291.2h70.2l-356.6-368.9h-64.5V1504.5z M982.6,1843v37
	c-17.1-26.6-82.5-123.3-157.4-128c0,0,25.6,86.3,137.5,137.5c0,0-140.4,9.5-197.3,86.3c0,0,122.3,11.4,218.1-84.4v59.7h37V1844
	h-37.9V1843z M1044.2,1888.6c111-51.2,136.6-138.5,136.6-138.5c-86.3,5.7-161.2,136.6-161.2,136.6c96.7,98.6,222.9,86.3,222.9,86.3
	C1184.6,1897.1,1044.2,1888.6,1044.2,1888.6 M1188.4,1858.2c0,0,107.2-63.5,112.9-161.2c0,0-85.4,15.2-148.9,170.7
	c0,0,125.2,98.6,259.9,37.9C1412.2,1905.6,1314.5,1826,1188.4,1858.2 M1324.9,1811.7c0,0,83.5-71.1,84.4-160.3l-29.4,0.9
	c-26.6,23.7-66.4,74-88.2,175.4c0,0,140.4,75.9,262.7-7.6C1554.4,1820.3,1443.5,1758.6,1324.9,1811.7 M1251.9,1826
	c0,8.5,6.6,15.2,15.2,15.2c8.5,0,14.2-6.6,14.2-15.2s-6.6-14.2-14.2-14.2C1257.6,1811.7,1251.9,1818.4,1251.9,1826 M1770.7,754.3
	c0,0,75.9-140.4-7.6-262.7c0,0-60.7,110-7.6,228.6c0,0-81.6-94.8-178.3-83.5C1577.2,637.7,1606.6,719.2,1770.7,754.3 M1414.1,426.2
	l44.6-46.5c-37.9-8.5-109.1-21.8-166.9,21.8C1291.7,401.5,1322.1,435.7,1414.1,426.2 M1710,664.2c8.5,0,14.2-6.6,14.2-15.2
	c0-7.6-6.6-15.2-14.2-15.2c-8.5,0-15.2,6.6-15.2,15.2C1695.8,657.6,1702.4,664.2,1710,664.2 M1810.5,893.7
	c0,0,98.6-125.2,37.9-259.9c0,0-79.7,97.7-47.4,223.8c0,0-63.5-107.2-161.2-112.9C1639.8,744.8,1655,830.2,1810.5,893.7
	 M1597.1,189.1c46.5,22.8,83.5-0.9,83.5-0.9c51.2-25.6,89.1,9.5,89.1,9.5c36,28.5,30.3,65.4,30.3,65.4c0,28.5-8.5,30.3-8.5,30.3
	c-17.1,11.4-13.3-8.5-13.3-8.5c0.9,0,3.8-14.2,3.8-14.2c6.6-64.5-50.3-73-50.3-73c-60.7-10.4-75.9,45.5-75.9,45.5
	c-3.8,15.2-3.8,29.4-2.8,41.7l-75.9-75.9l3.8,64.5l169.8,169.8h60.7l-61.6-61.6c32.2,10.4,61.6,11.4,61.6,11.4
	c87.3-5.7,95.8-88.2,95.8-88.2c22.8-87.3-59.7-157.4-59.7-157.4c-55-47.4-137.5-51.2-137.5-51.2C1591.4,82.9,1549.7,7,1549.7,7
	c-14.2,34.1-10.4,85.4-10.4,85.4C1546.9,171.1,1597.1,189.1,1597.1,189.1 M1789.6,917.4c0,8.5,6.6,15.2,15.2,15.2
	c7.6,0,15.2-6.6,15.2-15.2c0-8.5-6.6-15.2-15.2-15.2C1796.3,903.2,1789.6,909.8,1789.6,917.4 M1467.2,369.3l36-36
	c-15.2-51.2-46.5-113.8-122.3-150.8C1380.9,182.4,1378,292.5,1467.2,369.3 M1558.2,1385h-61.6v78.7h61.6V1385z M1605.7,608.3
	c27.5,7.6,60.7,13.3,101.5,15.2c0,0,19-55,10.4-123.3l-54.1,51.2c5.7,13.3,13.3,27.5,21.8,40.8c0,0-15.2-12.3-38.9-25.6
	L1605.7,608.3z M430.6,441.3c0,8.5,6.6,15.2,15.2,15.2c8.5,0,15.2-6.6,15.2-15.2c0-8.5-6.6-14.2-15.2-14.2S430.6,433.8,430.6,441.3
	 M1725.2,459.4L1566.8,301l-142.3,154.6l152.7,150.8L1725.2,459.4z M1387.5,464.1l-32.2,37.9l173.6,173.6l35.1-35.1L1387.5,464.1z
	 M1554.4,1001.8h-61.6v78.7h61.6V1001.8z M813.8,253.6c0,0,48.4,32.2,133.7-26.6C947.5,226.1,841.3,183.4,813.8,253.6 M1364.8,308.6
	c0,0-48.4-14.2-109.1,5.7v55c37-0.9,74.9-9.5,142.3-45.5c0,0-32.2-156.5-174.5-196.3C1224.4,128.4,1248.1,251.7,1364.8,308.6
	 M726.5,377.8l0.9-54.1c-59.7-18-120.4-5.7-120.4-5.7c115.7-59.7,136.6-184,136.6-184c-141.3,43.6-169.8,200.1-169.8,200.1
	C639.3,366.4,689.5,376.9,726.5,377.8 M681.9,409.1c-79.7-56.9-196.3-13.3-196.3-13.3C589,317.1,588.1,191,588.1,191
	c-131.8,67.3-132.8,226.7-132.8,226.7C616.5,466,681.9,409.1,681.9,409.1 M672.5,290.6c0,8.5,6.6,15.2,15.2,15.2
	c8.5,0,15.2-6.6,15.2-15.2c0-8.5-6.6-14.2-15.2-14.2S672.5,282,672.5,290.6 M708.5,275.4l111-1.9c-34.1-20.9-72.1-19.9-72.1-19.9
	c124.2-38.9,159.3-149.8,159.3-149.8c-147,18-202,167.9-202,167.9C706.6,273.5,706.6,273.5,708.5,275.4 M1300.3,283
	c0-8.5-6.6-15.2-14.2-15.2c-8.5,0-15.2,6.6-15.2,15.2c0,8.5,6.6,14.2,15.2,14.2S1300.3,290.6,1300.3,283 M1222.5,253.6
	c0,0-37.9-0.9-72.1,19.9l111,1.9c1.9-1.9,1.9-1.9,3.8-2.8c0,0-55-149.8-202-167.9C1063.2,103.7,1098.3,214.7,1222.5,253.6
	 M984.5,236.5c10.4,0,19.9-8.5,19.9-19.9c0-10.4-8.5-19.9-19.9-19.9c-10.4,0-19.9,8.5-19.9,19.9C964.6,228,973.1,236.5,984.5,236.5
	 M1156.1,246.9c-31.3-69.2-134.7-21.8-134.7-21.8C1108.7,281.1,1156.1,246.9,1156.1,246.9"/>
<g>
	<g>
		<path class="st1" d="M637.4,1280.7c2.8,11.4,10.4,16.1,23.7,16.1s19-4.7,19-13.3c0-9.5-5.7-13.3-24.7-18
			c-30.3-7.6-37.9-18-37.9-33.2c0-19.9,14.2-33.2,40.8-33.2c29.4,0,41.7,16.1,43.6,32.2h-24.7c-0.9-6.6-4.7-14.2-19.9-14.2
			c-9.5,0-16.1,3.8-16.1,12.3c0,7.6,4.7,11.4,22.8,15.2c32.2,7.6,39.8,19.9,39.8,36c0,20.9-15.2,34.1-45.5,34.1
			c-28.5,0-43.6-14.2-46.5-34.1L637.4,1280.7L637.4,1280.7z"/>
		<path class="st1" d="M724.6,1312.9V1201H755c14.2,25.6,39.8,71.1,45.5,82.5l0,0c-0.9-11.4-0.9-31.3-0.9-49.3V1201h21.8v111.9
			h-28.5c-12.3-21.8-40.8-74-46.5-87.3l0,0c0.9,9.5,0.9,33.2,0.9,53.1v34.1L724.6,1312.9L724.6,1312.9z"/>
		<path class="st1" d="M870.7,1201v67.3c0,21.8,11.4,27.5,22.8,27.5c14.2,0,22.8-7.6,22.8-27.5V1201h24.7v65.4
			c0,37.9-22.8,48.4-47.4,48.4c-25.6,0-47.4-10.4-47.4-47.4V1201H870.7z"/>
	</g>
</g>
<g>
	<g>
		<path class="st1" d="M1158,1278.8c-4.7,20.9-19.9,36-48.4,36c-36,0-52.2-25.6-52.2-56.9c0-30.3,17.1-58.8,53.1-58.8
			c30.3,0,44.6,18,47.4,36h-24.7c-1.9-8.5-8.5-17.1-23.7-17.1c-19.9,0-27.5,18-27.5,38.9c0,19,6.6,38.9,28.5,38.9
			c16.1,0,20.9-10.4,22.8-17.1L1158,1278.8L1158,1278.8z"/>
		<path class="st1" d="M1201.6,1268.3v44.6h-23.7V1201h49.3c24.7,0,37.9,13.3,37.9,30.3c0,15.2-8.5,22.8-16.1,26.6
			c5.7,1.9,14.2,7.6,14.2,27.5v5.7c0,7.6,0,16.1,1.9,21.8h-23.7c-1.9-4.7-1.9-13.3-1.9-25.6v-1.9c0-12.3-2.8-18-20.9-18h-17.1
			V1268.3z M1201.6,1249.4h19.9c13.3,0,18-4.7,18-14.2c0-9.5-5.7-14.2-18-14.2h-20.9v28.5H1201.6z"/>
		<path class="st1" d="M1302.2,1280.7c2.8,11.4,10.4,16.1,23.7,16.1s19-4.7,19-13.3c0-9.5-5.7-13.3-24.7-18
			c-30.3-7.6-37.9-18-37.9-33.2c0-19.9,14.2-33.2,40.8-33.2c29.4,0,41.7,16.1,43.6,32.2H1342c-0.9-6.6-4.7-14.2-19.9-14.2
			c-9.5,0-16.1,3.8-16.1,12.3c0,7.6,4.7,11.4,22.8,15.2c32.2,7.6,39.8,19.9,39.8,36c0,20.9-15.2,34.1-45.5,34.1
			c-28.5,0-43.6-14.2-46.5-34.1L1302.2,1280.7L1302.2,1280.7z"/>
	</g>
</g>
</svg>
